# xmcd
#
# Track frame offsets: 
#        150
#        12719
#        25027
#        36774
#        46832
#        56890
#        68555
#        80104
#        94610
#        103857
#        116934
#        138238
#        156225
#        169509
#        181144
#        200273
#        215488
#        231692
#        243493
#        256679
#
# Disc length: 3623 seconds
#
# Revision: 0
# Processed by: cddbd v1.5.2PL0 Copyright (c) Steve Scherf et al.
# Submitted via: ExactAudioCopy v1.0b1
#
DISCID=180e2514
DTITLE=Marty Robbins - A Lifetime Of Song 1951-1982
DYEAR=1990
DGENRE=Country
TTITLE0=Tomorrow You'll Be Gone
TTITLE1=I'll Go On Alone
TTITLE2=That's All Right
TTITLE3=Knee Deep In The Blues
TTITLE4=Singing The Blues
TTITLE5=A White Sport Coat
TTITLE6=The Story Of My Life
TTITLE7=Don't Worry
TTITLE8=Ruby Ann
TTITLE9=Devil Woman
TTITLE10=El Paso
TTITLE11=Bir Iron
TTITLE12=The Hanging Tree
TTITLE13=Ribbon Of Darkness
TTITLE14=El Paso City
TTITLE15=I Walk Alone
TTITLE16=My Woman, My Woman, My Wife
TTITLE17=Among My Souvenirs
TTITLE18=Return To Me
TTITLE19=Some Memories Just Won't Die
EXTD=
EXTT0=
EXTT1=
EXTT2=
EXTT3=
EXTT4=
EXTT5=
EXTT6=
EXTT7=
EXTT8=
EXTT9=
EXTT10=
EXTT11=
EXTT12=
EXTT13=
EXTT14=
EXTT15=
EXTT16=
EXTT17=
EXTT18=
EXTT19=
PLAYORDER=
